<svg xmlns="http://www.w3.org/2000/svg" version="1.1" xmlns:xlink="http://www.w3.org/1999/xlink" xmlns:svgjs="http://svgjs.dev/svgjs" width="1500" height="454" viewBox="0 0 1500 454"><g transform="matrix(1,0,0,1,1.3847253765178493,-0.7013484934761891)"><svg viewBox="0 0 261 79" data-background-color="#1f2d5a" preserveAspectRatio="xMidYMid meet" height="454" width="1500" xmlns="http://www.w3.org/2000/svg" xmlns:xlink="http://www.w3.org/1999/xlink"><g id="tight-bounds" transform="matrix(1,0,0,1,-0.2409422155141101,0.12204081714673976)"><svg viewBox="0 0 261.4818844310282 78.75591836570655" height="78.75591836570655" width="261.4818844310282"><g><svg viewBox="0 0 261.4818844310282 78.75591836570655" height="78.75591836570655" width="261.4818844310282"><g><svg viewBox="0 0 261.4818844310282 78.75591836570655" height="78.75591836570655" width="261.4818844310282"><g id="textblocktransform"><svg viewBox="0 0 261.4818844310282 78.75591836570655" height="78.75591836570655" width="261.4818844310282" id="textblock"><g><svg viewBox="0 0 261.4818844310282 58.571600000000004" height="58.571600000000004" width="261.4818844310282"><g><svg><g></g><g></g></svg></g><g><svg><g><svg></svg></g><g></g></svg></g><g id="text-0"><svg viewBox="0 0 261.4818844310282 58.571600000000004" height="58.571600000000004" width="261.4818844310282"><g transform="matrix(1,0,0,1,0,11.135800000000003)"><svg width="94.25" viewBox="4.5 -35.6 94.25 36.2" height="36.2" data-palette-color="#fbfbfb"><path d="M9 0L4.5 0 4.5-35 10.8-35 26.25-5.9 26.25-35 30.75-35 30.75 0 24.55 0 9-28.9 9 0ZM52.65 0L47.9 0 47.9-13.3 35.75-33.05 39.75-35.45 50.45-17.7 60.95-35.25 64.7-33.05 52.65-13.3 52.65 0ZM82.2 0.6L82.2 0.6Q78.3 0.6 75.25-0.83 72.2-2.25 70.07-4.73 67.95-7.2 66.82-10.5 65.7-13.8 65.7-17.55L65.7-17.55Q65.7-22.7 67.67-26.78 69.65-30.85 73.35-33.23 77.05-35.6 82.2-35.6L82.2-35.6Q86.05-35.6 89.12-34.2 92.2-32.8 94.35-30.3 96.5-27.8 97.62-24.55 98.75-21.3 98.75-17.55L98.75-17.55Q98.75-13.8 97.62-10.5 96.5-7.2 94.35-4.73 92.2-2.25 89.15-0.83 86.1 0.6 82.2 0.6ZM82.2-3.5L82.2-3.5Q86.05-3.5 88.65-5.35 91.25-7.2 92.57-10.38 93.9-13.55 93.9-17.55L93.9-17.55Q93.9-20.25 93.1-22.75 92.3-25.25 90.8-27.23 89.3-29.2 87.12-30.35 84.95-31.5 82.2-31.5L82.2-31.5Q78.55-31.5 75.92-29.65 73.3-27.8 71.92-24.65 70.55-21.5 70.55-17.55L70.55-17.55Q70.55-14.85 71.32-12.33 72.1-9.8 73.6-7.8 75.1-5.8 77.27-4.65 79.45-3.5 82.2-3.5Z" opacity="1" transform="matrix(1,0,0,1,0,0)" fill="#fbfbfb" class="undefined-yy-0"></path></svg></g><g><svg xmlns:x="http://ns.adobe.com/Extensibility/1.0/" xmlns:i="http://ns.adobe.com/AdobeIllustrator/10.0/" xmlns:graph="http://ns.adobe.com/Graphs/1.0/" xmlns="http://www.w3.org/2000/svg" xmlns:xlink="http://www.w3.org/1999/xlink" version="1.0" x="108.0784" y="0" viewBox="12.13 6.272 75.74000000000001 87.45599999999999" enable-background="new 0 0 100 100" xml:space="preserve" height="58.571600000000004" width="50.72508443102819" class="icon-cg-0" data-fill-palette-color="accent" id="cg-0"><g fill="#2f76db" data-fill-palette-color="accent"><path d="M50 6.272L12.13 28.137v43.728L50 93.728l37.87-21.863V28.137L50 6.272zM78.438 32.691L51 16.85V9.159L84.898 28.73 78.438 32.691zM50 59.352l-7.21-4.162v-8.326L50 42.701l7.209 4.162v8.326L50 59.352zM49 40.968l-6.67 3.851-7.902-4.675L49 31.731V40.968zM40.79 46.232v8.625l-8 4.451v-17.81L40.79 46.232zM41.498 56.753L49 61.083v9.238l-15.65-9.035L41.498 56.753zM51 61.083l7.502-4.331 8.148 4.534L51 70.321V61.083zM59.209 54.855v-8.73l0.314 0.513 7.687-4.714v17.383L59.209 54.855zM58.479 44.934l0.335 0.547L51 40.969v-9.237l14.94 8.625L58.479 44.934zM49 29.422l-16.547 9.553-8.779-5.194L49 19.159V29.422zM30.79 40.315v20.107l-8 4.451V35.582L30.79 40.315zM31.313 62.42L49 72.63v8.212L24.071 66.449 31.313 62.42zM51 72.63l17.687-10.211 7.243 4.03L51 80.842V72.63zM69.21 60.421V40.698l8-4.907v29.081L69.21 60.421zM67.879 39.168L51 29.423V19.159l25.5 14.722L67.879 39.168zM49 16.849L21.699 32.612l-6.579-3.893L49 9.159V16.849zM20.79 34.398v31.588l-6.66 3.705V30.458L20.79 34.398zM22.034 67.583L49 83.15v7.691L15.251 71.357 22.034 67.583zM51 83.15l26.966-15.568 6.783 3.775L51 90.842V83.15zM79.21 65.985V34.564l6.66-4.085v39.212L79.21 65.985z" fill="#2f76db" data-fill-palette-color="accent"></path></g></svg><g></g></g><g transform="matrix(1,0,0,1,172.6318844310282,11.1108)"><svg width="88.85000000000001" viewBox="4.5 -35.55 88.84 35.949999999999996" height="35.95" data-palette-color="#fbfbfb"><path d="M13.7 0.4L13.7 0.4Q10.85 0.4 8.72 0.25 6.6 0.1 4.5-0.1L4.5-0.1 4.5-34.9Q6.85-35.15 9.1-35.27 11.35-35.4 14.25-35.4L14.25-35.4Q18.75-35.4 22.03-34 25.3-32.6 27.43-30.15 29.55-27.7 30.58-24.48 31.6-21.25 31.6-17.55L31.6-17.55Q31.6-13.9 30.55-10.65 29.5-7.4 27.33-4.93 25.15-2.45 21.78-1.03 18.4 0.4 13.7 0.4ZM13.85-3.75L13.85-3.75Q18.35-3.75 21.2-5.5 24.05-7.25 25.4-10.38 26.75-13.5 26.75-17.55L26.75-17.55Q26.75-21.15 25.4-24.3 24.05-27.45 21.25-29.38 18.45-31.3 14.1-31.3L14.1-31.3Q12.65-31.3 11.45-31.23 10.25-31.15 9.25-31.05L9.25-31.05 9.25-4Q10.3-3.85 11.45-3.8 12.6-3.75 13.85-3.75ZM59.6 0L38.6 0 38.6-35 59.6-35 59.6-30.9 43.35-30.9 43.35-20.25 57.35-20.25 57.35-16.25 43.35-16.25 43.35-4.1 59.6-4.1 59.6 0ZM80.55 0L75.2 0 62.35-33.75 67-35.55 78-5.2 89.05-35.4 93.34-33.75 80.55 0Z" opacity="1" transform="matrix(1,0,0,1,0,0)" fill="#fbfbfb" class="undefined-yy-1"></path></svg></g></svg></g></svg></g><g transform="matrix(1,0,0,1,49.94303992632639,67.0585322)"><svg viewBox="0 0 161.59580457837544 11.697386165706535" height="11.697386165706535" width="161.59580457837544"><g transform="matrix(1,0,0,1,0,0)"><svg width="161.59580457837544" viewBox="4.73 -40.5 737.99 53.43" height="11.697386165706535" data-palette-color="#fbfbfb"><path d="M12.75-10L12.75-35.5 13.75-37 10.25-36 5.23-36 4.73-40 17.25-40 17.25-9.4Q17.25-7.75 17.5-6.64 17.75-5.53 18.18-4.84 18.6-4.15 19.2-3.86 19.8-3.58 20.5-3.58L20.5-3.58Q21.5-3.58 22.34-3.73 23.18-3.88 23.84-4.1 24.5-4.33 24.99-4.58 25.48-4.83 25.78-5L25.78-5 27.5-1.98Q27.3-1.8 26.68-1.4 26.05-1 25.09-0.6 24.13-0.2 22.84 0.11 21.55 0.43 20 0.43L20 0.43Q17.75 0.43 16.32-0.4 14.9-1.23 14.11-2.65 13.33-4.08 13.04-5.96 12.75-7.85 12.75-10L12.75-10ZM50.27-27.5L50.27-9.83Q50.27-8.53 50.44-7.43 50.6-6.33 50.97-5.53 51.35-4.73 51.97-4.28 52.6-3.83 53.52-3.83L53.52-3.83Q54.75-3.83 55.91-4.03 57.07-4.23 58-4.49 58.92-4.75 59.54-4.98 60.15-5.2 60.3-5.25L60.3-5.25 61.27-1.4Q61.12-1.33 60.47-1.03 59.82-0.73 58.77-0.41 57.72-0.1 56.32 0.16 54.92 0.43 53.27 0.43L53.27 0.43Q50.82 0.43 49.31-0.38 47.8-1.18 46.95-2.59 46.1-4 45.81-5.93 45.52-7.85 45.52-10.08L45.52-10.08 45.52-23 46.52-24.5 43.02-23.5 38-23.5 37.5-27.5 50.27-27.5ZM45.37-32.5L45.37-37.5 50.42-37.5 50.42-32.5 45.37-32.5ZM68.7-23.5L68.7-27.5 75-27.5 75-31.38Q75-33.5 75.84-35.18 76.7-36.85 78.15-38.01 79.59-39.18 81.55-39.8 83.5-40.43 85.7-40.43L85.7-40.43Q86.82-40.43 87.97-40.23 89.12-40.03 90.18-39.71 91.25-39.4 92.15-39 93.05-38.6 93.62-38.23L93.62-38.23 91.5-35.27Q91.2-35.45 90.58-35.65 89.97-35.85 89.26-36.02 88.55-36.2 87.8-36.31 87.05-36.43 86.5-36.43L86.5-36.43Q85.42-36.43 84.21-36.14 83-35.85 81.98-35.21 80.97-34.58 80.3-33.56 79.62-32.55 79.62-31.13L79.62-31.13 79.62-27.5 90.82-27.5 90.32-23.5 79.75-23.5 79.75 0 75 0 75-23.5 68.7-23.5ZM120.62-5.9L123.34-3.23Q122.57-2.43 121.64-1.75 120.72-1.07 119.59-0.59 118.47-0.1 117.11 0.16 115.74 0.43 114.07 0.43L114.07 0.43Q110.74 0.43 108.32-0.75 105.89-1.93 104.32-3.9 102.74-5.88 101.99-8.43 101.24-10.98 101.24-13.75L101.24-13.75Q101.24-15.53 101.61-17.26 101.97-19 102.66-20.58 103.34-22.15 104.38-23.5 105.42-24.85 106.78-25.83 108.14-26.8 109.81-27.36 111.47-27.93 113.44-27.93L113.44-27.93Q116.14-27.93 118.32-27.05 120.49-26.18 122.02-24.6 123.54-23.03 124.37-20.81 125.19-18.6 125.19-15.95L125.19-15.95Q125.19-15.18 125.14-14.25 125.09-13.33 124.99-12.5L124.99-12.5 105.99-12.5Q105.99-10.58 106.59-8.94 107.19-7.3 108.23-6.11 109.27-4.93 110.68-4.25 112.09-3.58 113.74-3.58L113.74-3.58Q115.34-3.58 116.48-3.81 117.62-4.05 118.41-4.4 119.19-4.75 119.72-5.15 120.24-5.55 120.62-5.9L120.62-5.9ZM109.62-16.25L120.79-16.25 120.79-17.35Q120.79-18.78 120.23-19.98 119.67-21.18 118.71-22.06 117.74-22.95 116.48-23.45 115.22-23.95 113.82-23.95L113.82-23.95Q112.14-23.95 110.88-23.41 109.62-22.88 108.72-22.04 107.82-21.2 107.27-20.2 106.72-19.2 106.47-18.3L106.47-18.3 104.99-15.45 109.62-16.25ZM172.26-20.85L172.26 0 167.76 0 167.76-27.5 172.26-28 172.26-23.18 173.79-26.1Q174.24-26.4 174.85-26.73 175.46-27.05 176.34-27.31 177.21-27.58 178.41-27.75 179.61-27.93 181.24-27.93L181.24-27.93Q183.21-27.93 184.8-27.29 186.39-26.65 187.48-25.45 188.56-24.25 189.15-22.55 189.74-20.85 189.74-18.75L189.74-18.75 189.74 0 185.24 0 185.24-18.75Q185.24-20.1 184.8-21.08 184.36-22.05 183.59-22.69 182.81-23.33 181.79-23.63 180.76-23.93 179.61-23.93L179.61-23.93Q178.41-23.93 177.3-23.63 176.19-23.33 175.24-22.86 174.29-22.4 173.53-21.86 172.76-21.33 172.26-20.85L172.26-20.85ZM218.11-5.9L220.84-3.23Q220.06-2.43 219.14-1.75 218.21-1.07 217.09-0.59 215.96-0.1 214.6 0.16 213.24 0.43 211.56 0.43L211.56 0.43Q208.24 0.43 205.81-0.75 203.39-1.93 201.81-3.9 200.24-5.88 199.49-8.43 198.74-10.98 198.74-13.75L198.74-13.75Q198.74-15.53 199.1-17.26 199.46-19 200.15-20.58 200.84-22.15 201.87-23.5 202.91-24.85 204.27-25.83 205.64-26.8 207.3-27.36 208.96-27.93 210.94-27.93L210.94-27.93Q213.64-27.93 215.81-27.05 217.99-26.18 219.51-24.6 221.04-23.03 221.86-20.81 222.69-18.6 222.69-15.95L222.69-15.95Q222.69-15.18 222.64-14.25 222.59-13.33 222.49-12.5L222.49-12.5 203.49-12.5Q203.49-10.58 204.09-8.94 204.69-7.3 205.72-6.11 206.76-4.93 208.17-4.25 209.59-3.58 211.24-3.58L211.24-3.58Q212.84-3.58 213.97-3.81 215.11-4.05 215.9-4.4 216.69-4.75 217.21-5.15 217.74-5.55 218.11-5.9L218.11-5.9ZM207.11-16.25L218.29-16.25 218.29-17.35Q218.29-18.78 217.72-19.98 217.16-21.18 216.2-22.06 215.24-22.95 213.97-23.45 212.71-23.95 211.31-23.95L211.31-23.95Q209.64-23.95 208.37-23.41 207.11-22.88 206.21-22.04 205.31-21.2 204.76-20.2 204.21-19.2 203.96-18.3L203.96-18.3 202.49-15.45 207.11-16.25ZM250.83-27.5L255.21-28 245.93 0.5 240.78 0 231.86-27.5 236.43-28 242.41-9.53 243.73-3.73 244.98-9.53 250.83-27.5ZM283.11-5.9L285.83-3.23Q285.06-2.43 284.13-1.75 283.21-1.07 282.08-0.59 280.96-0.1 279.59 0.16 278.23 0.43 276.56 0.43L276.56 0.43Q273.23 0.43 270.81-0.75 268.38-1.93 266.81-3.9 265.23-5.88 264.48-8.43 263.73-10.98 263.73-13.75L263.73-13.75Q263.73-15.53 264.09-17.26 264.46-19 265.14-20.58 265.83-22.15 266.87-23.5 267.91-24.85 269.27-25.83 270.63-26.8 272.29-27.36 273.96-27.93 275.93-27.93L275.93-27.93Q278.63-27.93 280.81-27.05 282.98-26.18 284.5-24.6 286.03-23.03 286.86-20.81 287.68-18.6 287.68-15.95L287.68-15.95Q287.68-15.18 287.63-14.25 287.58-13.33 287.48-12.5L287.48-12.5 268.48-12.5Q268.48-10.58 269.08-8.94 269.68-7.3 270.72-6.11 271.75-4.93 273.17-4.25 274.58-3.58 276.23-3.58L276.23-3.58Q277.83-3.58 278.97-3.81 280.11-4.05 280.89-4.4 281.68-4.75 282.21-5.15 282.73-5.55 283.11-5.9L283.11-5.9ZM272.11-16.25L283.28-16.25 283.28-17.35Q283.28-18.78 282.72-19.98 282.16-21.18 281.19-22.06 280.23-22.95 278.97-23.45 277.71-23.95 276.31-23.95L276.31-23.95Q274.63-23.95 273.37-23.41 272.11-22.88 271.21-22.04 270.31-21.2 269.75-20.2 269.21-19.2 268.96-18.3L268.96-18.3 267.48-15.45 272.11-16.25ZM302.25-28L302.25-22.38 304.53-26.33Q305.23-26.85 306.13-27.18 307.03-27.5 307.98-27.66 308.93-27.83 309.89-27.88 310.85-27.93 311.73-27.93L311.73-27.93Q313.6-27.93 314.93-27.76 316.25-27.6 317.17-27.35 318.08-27.1 318.63-26.84 319.18-26.58 319.48-26.38L319.48-26.38 320.73-19.25 316.98-18.75 315.73-23.2Q315.53-23.28 315.1-23.35 314.68-23.43 314.13-23.5 313.58-23.58 312.97-23.63 312.35-23.68 311.8-23.68L311.8-23.68Q310.1-23.68 308.65-23.29 307.2-22.9 306-22.23 304.8-21.55 303.87-20.65 302.93-19.75 302.25-18.75L302.25-18.75 302.25 0 297.75 0 297.75-27.5 302.25-28ZM361.17-23.5L361.17-27.5 367.47-27.5 367.47-31.38Q367.47-33.5 368.32-35.18 369.17-36.85 370.62-38.01 372.07-39.18 374.02-39.8 375.97-40.43 378.17-40.43L378.17-40.43Q379.3-40.43 380.45-40.23 381.6-40.03 382.66-39.71 383.72-39.4 384.62-39 385.52-38.6 386.1-38.23L386.1-38.23 383.97-35.27Q383.67-35.45 383.06-35.65 382.45-35.85 381.74-36.02 381.02-36.2 380.27-36.31 379.52-36.43 378.97-36.43L378.97-36.43Q377.9-36.43 376.69-36.14 375.47-35.85 374.46-35.21 373.45-34.58 372.77-33.56 372.1-32.55 372.1-31.13L372.1-31.13 372.1-27.5 383.3-27.5 382.8-23.5 372.22-23.5 372.22 0 367.47 0 367.47-23.5 361.17-23.5ZM413.1-5.9L415.82-3.23Q415.05-2.43 414.12-1.75 413.2-1.07 412.07-0.59 410.95-0.1 409.58 0.16 408.22 0.43 406.55 0.43L406.55 0.43Q403.22 0.43 400.8-0.75 398.37-1.93 396.8-3.9 395.22-5.88 394.47-8.43 393.72-10.98 393.72-13.75L393.72-13.75Q393.72-15.53 394.08-17.26 394.45-19 395.13-20.58 395.82-22.15 396.86-23.5 397.9-24.85 399.26-25.83 400.62-26.8 402.28-27.36 403.95-27.93 405.92-27.93L405.92-27.93Q408.62-27.93 410.8-27.05 412.97-26.18 414.5-24.6 416.02-23.03 416.85-20.81 417.67-18.6 417.67-15.95L417.67-15.95Q417.67-15.18 417.62-14.25 417.57-13.33 417.47-12.5L417.47-12.5 398.47-12.5Q398.47-10.58 399.07-8.94 399.67-7.3 400.71-6.11 401.75-4.93 403.16-4.25 404.57-3.58 406.22-3.58L406.22-3.58Q407.82-3.58 408.96-3.81 410.1-4.05 410.88-4.4 411.67-4.75 412.2-5.15 412.72-5.55 413.1-5.9L413.1-5.9ZM402.1-16.25L413.27-16.25 413.27-17.35Q413.27-18.78 412.71-19.98 412.15-21.18 411.18-22.06 410.22-22.95 408.96-23.45 407.7-23.95 406.3-23.95L406.3-23.95Q404.62-23.95 403.36-23.41 402.1-22.88 401.2-22.04 400.3-21.2 399.75-20.2 399.2-19.2 398.95-18.3L398.95-18.3 397.47-15.45 402.1-16.25ZM435.22-10L435.22-35.5 436.22-37 432.72-36 427.69-36 427.19-40 439.72-40 439.72-9.4Q439.72-7.75 439.97-6.64 440.22-5.53 440.64-4.84 441.07-4.15 441.67-3.86 442.27-3.58 442.97-3.58L442.97-3.58Q443.97-3.58 444.81-3.73 445.64-3.88 446.31-4.1 446.97-4.33 447.46-4.58 447.94-4.83 448.24-5L448.24-5 449.97-1.98Q449.77-1.8 449.14-1.4 448.52-1 447.56-0.6 446.59-0.2 445.31 0.11 444.02 0.43 442.47 0.43L442.47 0.43Q440.22 0.43 438.79-0.4 437.37-1.23 436.58-2.65 435.79-4.08 435.51-5.96 435.22-7.85 435.22-10L435.22-10ZM469.24-23.5L469.24-9.4Q469.24-7.75 469.43-6.64 469.62-5.53 469.98-4.84 470.34-4.15 470.88-3.86 471.42-3.58 472.12-3.58L472.12-3.58Q473.29-3.58 474.44-3.85 475.59-4.13 476.59-4.49 477.59-4.85 478.37-5.21 479.14-5.58 479.57-5.75L479.57-5.75 481.29-2.73Q481.07-2.53 480.2-2.01 479.34-1.5 478.03-0.95 476.72-0.4 475.07 0.01 473.42 0.43 471.62 0.43L471.62 0.43Q469.37 0.43 468-0.4 466.64-1.23 465.92-2.65 465.19-4.08 464.97-5.96 464.74-7.85 464.74-10L464.74-10 464.74-23.5 457.47-23.5 457.47-27.5 464.74-27.5 464.74-32.73 469.12-35.5 469.12-27.5 481.22-27.5 480.72-23.5 469.24-23.5ZM545.46-26.18L544.01-22.48Q543.54-22.7 542.87-22.99 542.21-23.28 541.38-23.51 540.56-23.75 539.57-23.91 538.59-24.08 537.46-24.08L537.46-24.08Q535.94-24.08 534.49-23.93 533.04-23.78 531.91-23.38 530.79-22.98 530.1-22.3 529.41-21.63 529.41-20.55L529.41-20.55Q529.41-19.65 530.09-19.01 530.76-18.38 531.85-17.91 532.94-17.45 534.31-17.11 535.69-16.78 537.09-16.48 538.49-16.18 539.79-15.89 541.09-15.6 542.04-15.25L542.04-15.25Q543.13-14.83 544.1-14.18 545.06-13.53 545.79-12.66 546.51-11.8 546.92-10.76 547.34-9.73 547.34-8.53L547.34-8.53Q547.34-6.9 546.71-5.61 546.09-4.33 545.02-3.34 543.96-2.35 542.56-1.64 541.16-0.93 539.6-0.46 538.04 0 536.42 0.21 534.81 0.43 533.34 0.43L533.34 0.43Q532.49 0.43 531.22 0.26 529.96 0.1 528.65-0.19 527.34-0.48 526.16-0.88 524.99-1.28 524.34-1.73L524.34-1.73 525.99-5.28Q526.59-4.98 527.56-4.67 528.54-4.38 529.61-4.13 530.69-3.88 531.7-3.73 532.71-3.58 533.38-3.58L533.38-3.58Q534.16-3.58 535.12-3.66 536.09-3.75 537.1-3.96 538.11-4.17 539.07-4.54 540.04-4.9 540.79-5.45 541.54-6 542-6.75 542.46-7.5 542.46-8.5L542.46-8.5Q542.46-9.47 541.81-10.15 541.16-10.83 540.09-11.3 539.01-11.78 537.67-12.11 536.34-12.45 534.94-12.75 533.54-13.05 532.24-13.36 530.94-13.68 529.96-14.15L529.96-14.15Q528.54-14.83 527.6-15.61 526.66-16.4 526.1-17.28 525.54-18.15 525.31-19.1 525.09-20.05 525.09-21.05L525.09-21.05Q525.09-22.83 526.1-24.13 527.11-25.43 528.81-26.26 530.51-27.1 532.71-27.51 534.91-27.93 537.31-27.93L537.31-27.93Q538.61-27.93 539.85-27.78 541.09-27.63 542.17-27.38 543.26-27.13 544.11-26.81 544.96-26.5 545.46-26.18L545.46-26.18ZM568.68 0.43L568.68 0.43Q565.91 0.43 563.6-0.66 561.28-1.75 559.61-3.66 557.93-5.58 557-8.18 556.06-10.78 556.06-13.83L556.06-13.83Q556.06-16.85 556.96-19.44 557.86-22.03 559.51-23.91 561.16-25.8 563.5-26.86 565.83-27.93 568.68-27.93L568.68-27.93Q571.46-27.93 573.73-26.86 576.01-25.8 577.64-23.91 579.28-22.03 580.18-19.44 581.08-16.85 581.08-13.83L581.08-13.83Q581.08-10.78 580.22-8.18 579.36-5.58 577.75-3.66 576.13-1.75 573.83-0.66 571.53 0.43 568.68 0.43ZM576.33-13.15L576.33-13.15Q576.33-15.18 575.91-17.13 575.48-19.07 574.56-20.61 573.63-22.15 572.16-23.1 570.68-24.05 568.58-24.05L568.58-24.05Q566.58-24.05 565.11-23.23 563.63-22.4 562.68-21.03 561.73-19.65 561.27-17.9 560.81-16.15 560.81-14.3L560.81-14.3Q560.81-12.28 561.27-10.33 561.73-8.38 562.69-6.85 563.66-5.33 565.17-4.39 566.68-3.45 568.78-3.45L568.78-3.45Q570.76-3.45 572.19-4.28 573.63-5.1 574.54-6.46 575.46-7.83 575.89-9.56 576.33-11.3 576.33-13.15ZM640.2 0.78L640.2-3.38 638.03-0.63Q637.8-0.48 637.39-0.3 636.98-0.13 636.38 0.04 635.78 0.2 634.98 0.31 634.18 0.43 633.2 0.43L633.2 0.43Q631.68 0.43 630.2-0.08 628.73-0.58 627.39-1.5 626.05-2.43 624.93-3.71 623.8-5 622.96-6.56 622.13-8.13 621.66-9.91 621.2-11.7 621.2-13.63L621.2-13.63Q621.2-16.55 622.15-19.15 623.1-21.75 624.83-23.7 626.55-25.65 628.98-26.79 631.4-27.93 634.35-27.93L634.35-27.93Q635.28-27.93 636.16-27.85 637.05-27.78 637.83-27.5L637.83-27.5 640.2-23.95 640.2-28 644.7-27.5 644.7 1.15Q644.7 3.6 643.9 5.75 643.1 7.9 641.58 9.49 640.05 11.08 637.83 12 635.6 12.93 632.75 12.93L632.75 12.93Q630.78 12.93 629.29 12.43 627.8 11.93 626.75 11.33L626.75 11.33Q626.15 10.98 625.63 10.58 625.1 10.18 624.68 9.7L624.68 9.7 627.13 6.95Q627.48 7.23 627.89 7.48 628.3 7.73 628.75 7.95L628.75 7.95Q629.53 8.33 630.55 8.63 631.58 8.93 632.78 8.93L632.78 8.93Q634.33 8.93 635.68 8.29 637.03 7.65 638.04 6.55 639.05 5.45 639.63 3.96 640.2 2.48 640.2 0.78L640.2 0.78ZM640.2-6.88L640.2-20.85Q639.55-21.68 638.63-22.38L638.63-22.38Q637.85-22.95 636.75-23.44 635.65-23.93 634.23-23.93L634.23-23.93Q632.73-23.93 631.53-23.45 630.33-22.98 629.41-22.18 628.5-21.38 627.84-20.31 627.18-19.25 626.76-18.06 626.35-16.88 626.15-15.66 625.95-14.45 625.95-13.33L625.95-13.33Q625.95-11.2 626.61-9.41 627.28-7.63 628.35-6.34 629.43-5.05 630.8-4.33 632.18-3.6 633.6-3.6L633.6-3.6Q634.88-3.6 635.88-3.88 636.88-4.15 637.68-4.61 638.48-5.08 639.09-5.66 639.7-6.25 640.2-6.88L640.2-6.88ZM666.17 0.43L666.17 0.43Q663.4 0.43 661.09-0.66 658.77-1.75 657.1-3.66 655.42-5.58 654.49-8.18 653.55-10.78 653.55-13.83L653.55-13.83Q653.55-16.85 654.45-19.44 655.35-22.03 657-23.91 658.65-25.8 660.99-26.86 663.32-27.93 666.17-27.93L666.17-27.93Q668.95-27.93 671.22-26.86 673.5-25.8 675.14-23.91 676.77-22.03 677.67-19.44 678.57-16.85 678.57-13.83L678.57-13.83Q678.57-10.78 677.71-8.18 676.85-5.58 675.24-3.66 673.62-1.75 671.32-0.66 669.02 0.43 666.17 0.43ZM673.82-13.15L673.82-13.15Q673.82-15.18 673.4-17.13 672.97-19.07 672.05-20.61 671.12-22.15 669.65-23.1 668.17-24.05 666.07-24.05L666.07-24.05Q664.07-24.05 662.6-23.23 661.12-22.4 660.17-21.03 659.22-19.65 658.76-17.9 658.3-16.15 658.3-14.3L658.3-14.3Q658.3-12.28 658.76-10.33 659.22-8.38 660.19-6.85 661.15-5.33 662.66-4.39 664.17-3.45 666.27-3.45L666.27-3.45Q668.25-3.45 669.69-4.28 671.12-5.1 672.04-6.46 672.95-7.83 673.39-9.56 673.82-11.3 673.82-13.15ZM698.67 0.43L698.67 0.43Q695.9 0.43 693.58-0.66 691.27-1.75 689.6-3.66 687.92-5.58 686.98-8.18 686.05-10.78 686.05-13.83L686.05-13.83Q686.05-16.85 686.95-19.44 687.85-22.03 689.5-23.91 691.15-25.8 693.48-26.86 695.82-27.93 698.67-27.93L698.67-27.93Q701.45-27.93 703.72-26.86 706-25.8 707.63-23.91 709.27-22.03 710.17-19.44 711.07-16.85 711.07-13.83L711.07-13.83Q711.07-10.78 710.21-8.18 709.35-5.58 707.73-3.66 706.12-1.75 703.82-0.66 701.52 0.43 698.67 0.43ZM706.32-13.15L706.32-13.15Q706.32-15.18 705.9-17.13 705.47-19.07 704.55-20.61 703.62-22.15 702.15-23.1 700.67-24.05 698.57-24.05L698.57-24.05Q696.57-24.05 695.1-23.23 693.62-22.4 692.67-21.03 691.72-19.65 691.26-17.9 690.8-16.15 690.8-14.3L690.8-14.3Q690.8-12.28 691.26-10.33 691.72-8.38 692.68-6.85 693.65-5.33 695.16-4.39 696.67-3.45 698.77-3.45L698.77-3.45Q700.75-3.45 702.18-4.28 703.62-5.1 704.53-6.46 705.45-7.83 705.88-9.56 706.32-11.3 706.32-13.15ZM737.72-23.5L733.59-23.5Q731.29-23.5 729.42-22.64 727.54-21.78 726.21-20.3 724.87-18.82 724.14-16.82 723.42-14.83 723.42-12.55L723.42-12.55Q723.42-10.33 724.06-8.65 724.69-6.98 725.73-5.85 726.77-4.73 728.07-4.16 729.37-3.6 730.69-3.6L730.69-3.6Q731.87-3.6 732.92-4 733.97-4.4 734.87-5 735.77-5.6 736.49-6.31 737.22-7.03 737.72-7.65L737.72-7.65 737.72-23.5ZM742.72 0L737.72 0 737.72-4.05 735.57-1.23Q734.67-0.63 733.17-0.1 731.67 0.43 729.72 0.43L729.72 0.43Q727.47 0.43 725.47-0.39 723.47-1.2 721.97-2.86 720.47-4.53 719.59-7.09 718.72-9.65 718.72-13.15L718.72-13.15Q718.72-16.15 719.88-18.76 721.04-21.38 723.04-23.33 725.04-25.28 727.76-26.39 730.47-27.5 733.57-27.5L733.57-27.5 737.72-27.5 737.72-40.5 742.22-40 742.22-4.5 742.72 0Z" opacity="1" transform="matrix(1,0,0,1,0,0)" fill="#fbfbfb" class="slogan-text-1" data-fill-palette-color="secondary" id="text-1"></path></svg></g></svg></g></svg></g></svg></g></svg></g><defs></defs></svg><rect width="261.4818844310282" height="78.75591836570655" fill="none" stroke="none" visibility="hidden"></rect></g></svg></g></svg>